<?xml version="1.0" standalone="no"?>
<!DOCTYPE svg PUBLIC "-//W3C//DTD SVG 20010904//EN"
 "http://www.w3.org/TR/2001/REC-SVG-20010904/DTD/svg10.dtd">
<svg version="1.0" xmlns="http://www.w3.org/2000/svg"
 width="128.000000pt" height="128.000000pt" viewBox="0 0 128.000000 128.000000"
 preserveAspectRatio="xMidYMid meet">

<g transform="translate(0.000000,128.000000) scale(0.100000,-0.100000)"
fill="#000000" stroke="none">
<path d="M326 1004 c-3 -9 -6 -32 -6 -52 0 -43 -3 -48 -52 -85 -43 -32 -50
-32 -105 -7 -24 10 -44 16 -47 12 -2 -4 1 -38 6 -76 7 -55 6 -75 -6 -99 -9
-20 -11 -38 -6 -52 16 -41 101 -165 125 -181 34 -22 38 -42 15 -79 -18 -29
-18 -34 -5 -45 16 -14 65 -8 105 13 21 11 35 10 98 -10 40 -13 79 -23 86 -23
8 0 30 -18 50 -40 20 -22 39 -40 43 -40 3 0 21 18 40 40 28 32 41 40 69 40 19
0 61 7 93 16 58 16 60 16 102 -5 26 -14 51 -20 65 -17 21 6 23 10 18 50 -5 34
-3 46 11 57 50 39 85 83 119 149 30 57 37 78 31 103 -7 33 -7 58 -3 117 l3 35
-48 -3 c-38 -3 -56 1 -85 21 -20 14 -56 37 -80 51 -42 27 -43 28 -37 70 4 27
3 46 -4 50 -6 4 -43 -5 -83 -19 -63 -23 -77 -25 -120 -15 -69 14 -146 13 -204
-5 -68 -21 -79 -19 -129 15 -51 35 -51 35 -59 14z m386 -175 c82 -18 227 -91
271 -136 l38 -40 -31 -52 c-36 -59 -79 -84 -200 -121 -64 -19 -88 -21 -163
-15 -134 10 -202 35 -284 102 -24 19 -73 88 -73 102 0 8 70 68 100 86 8 5 55
26 105 46 98 41 147 47 237 28z"/>
<path d="M548 773 c-36 -23 -50 -52 -51 -109 -1 -81 51 -134 133 -134 138 0
192 168 77 239 -42 26 -120 28 -159 4z m116 -54 c52 -41 23 -129 -44 -129 -67
0 -96 88 -44 129 15 12 34 21 44 21 10 0 29 -9 44 -21z"/>
<path d="M602 688 c-16 -16 -15 -33 4 -48 22 -19 54 12 38 37 -14 22 -27 26
-42 11z"/>
</g>
</svg>
